<svg id="Lager_1" data-name="Lager 1" xmlns="http://www.w3.org/2000/svg" viewBox="0 0 1200 600"><defs><style>.cls-1{fill:#41cda5;}.cls-2{fill:#fff;}</style></defs><rect class="cls-1" width="1200" height="600"/><path class="cls-2" d="M261.76,375.88c-23,0-39.3-18.81-39.3-41.62s16.3-41.7,39.3-41.7c25.79,0,39.3,18.81,39.3,41.7S287.55,375.88,261.76,375.88Zm1.39-107.52c-13.26,0-27.1,5.39-35.28,13.41l-1.39,1.3-1.64,1.8V200H198V397.38h26.85V383.32l1.64,2,1.39,1.31c8.1,8.1,21.69,13.41,35.28,13.41,35.29,0,65.09-26.9,65.09-65.82S298.35,268.36,263.15,268.36Z"/><path class="cls-2" d="M425.82,347.59A30,30,0,0,1,396,375.8c-18.17,0-26.61-9.65-27.1-26.9V271H341.83V348.9c0,29.6,19,51.1,51.49,51.1,10.81,0,24.4-5.4,29.8-13.41l1.39-1.8,1.39-1.8v14.39H453V271.05H425.9v76.54Z"/><path class="cls-2" d="M774.24,317.25c4.09-14,14.9-24.69,33.89-24.69,16.3,0,29.81,10.71,31.17,24.69Zm33.89-48.89c-35.28,0-62.38,26.9-62.38,65.82S774.24,400,808.13,400c25.78,0,44.68-13.41,55.6-32.22l-22.79-10.71c-4.09,10.71-15.14,18.81-31.38,18.81-23.12,0-36.63-16.11-36.63-34.92h94.89v-8.09C867.75,293.87,840.67,268.36,808.13,268.36Z"/><path class="cls-2" d="M908.41,317.25c4.1-14,14.94-24.69,33.91-24.69,16.3,0,29.81,10.71,31.18,24.69Zm33.91-48.89c-35.27,0-62.36,26.9-62.36,65.82S908.41,400,942.32,400c25.79,0,44.68-13.41,55.6-32.22l-22.79-10.71C971,367.78,960,375.88,943.68,375.88c-23,0-36.56-16.11-36.56-34.92H1002v-8.09C1001.94,293.87,974.79,268.36,942.32,268.36Z"/><path class="cls-2" d="M671.17,375.88c-23,0-39.29-18.81-39.29-41.62s16.29-41.7,39.29-41.7c25.79,0,39.3,18.81,39.3,41.7S697,375.88,671.17,375.88Zm1.39-107.52c-13.26,0-27.09,5.39-35.28,13.41l-1.39,1.3-1.64,1.8V200H607.4V397.38h26.85V383.32l1.64,2,1.39,1.31c8.1,8.1,21.69,13.41,35.28,13.41,35.29,0,65.09-26.9,65.09-65.82S707.77,268.36,672.56,268.36Z"/><path class="cls-2" d="M490.9,334.18c0-22.81,13.59-41.7,39.3-41.7,23,0,39.29,18.8,39.29,41.7S553.2,375.8,530.2,375.8C504.41,375.88,490.9,357.07,490.9,334.18Zm-27.09,0c0,39,29.79,65.82,65.08,65.82,13.59,0,27.1-5.4,35.28-13.41l1.4-1.31,1.63-2v14.06h26.85V200H567v84.87l-1.64-1.8-1.39-1.3c-8.11-8.1-21.94-13.41-35.28-13.41C493.6,268.36,463.81,295.18,463.81,334.18Z"/></svg>